<?xml version="1.0" encoding="UTF-8"?>
<svg id="Layer_1" data-name="Layer 1" xmlns="http://www.w3.org/2000/svg" xmlns:xlink="http://www.w3.org/1999/xlink" viewBox="0 0 348.03 132.2">
  <defs>
    <style>
      .cls-1 {
        fill: url(#linear-gradient);
      }

      .cls-1, .cls-2, .cls-3, .cls-4, .cls-5, .cls-6 {
        stroke-width: 0px;
      }

      .cls-2 {
        fill: url(#linear-gradient-5);
      }

      .cls-3 {
        fill: url(#linear-gradient-2);
      }

      .cls-4 {
        fill: url(#linear-gradient-3);
      }

      .cls-5 {
        fill: #fff;
      }

      .cls-6 {
        fill: url(#linear-gradient-4);
      }
    </style>
    <linearGradient id="linear-gradient" x1="127.68" y1="13.95" x2="186.07" y2="13.95" gradientTransform="translate(-97.9 -3.9)" gradientUnits="userSpaceOnUse">
      <stop offset="0" stop-color="#39c0ca"/>
      <stop offset=".16" stop-color="#3ab7c7"/>
      <stop offset=".41" stop-color="#3ea1bf"/>
      <stop offset=".71" stop-color="#457db2"/>
      <stop offset="1" stop-color="#4e55a4"/>
    </linearGradient>
    <linearGradient id="linear-gradient-2" x1="-3475.86" y1="10901.86" x2="-3417.47" y2="10901.86" gradientTransform="translate(3576.64 -10797.74)" xlink:href="#linear-gradient"/>
    <linearGradient id="linear-gradient-3" x1="-3506.23" y1="10776.03" x2="-3486.62" y2="10776.03" gradientTransform="translate(-3318.31 10879.69) rotate(-180)" xlink:href="#linear-gradient"/>
    <linearGradient id="linear-gradient-4" x1="0" y1="10.04" x2="19.61" y2="10.04" gradientTransform="matrix(1,0,0,1,0,0)" xlink:href="#linear-gradient"/>
    <linearGradient id="linear-gradient-5" x1="228.73" y1="104.63" x2="281.39" y2="104.63" gradientTransform="matrix(1,0,0,1,0,0)" xlink:href="#linear-gradient"/>
  </defs>
  <g>
    <rect class="cls-1" x="29.78" y="1.46" width="58.39" height="17.16"/>
    <rect class="cls-3" x="100.78" y="95.54" width="58.39" height="17.16" transform="translate(259.95 208.24) rotate(180)"/>
    <path class="cls-4" d="M178.06,93.61c2.78,0,5.11.99,7.01,2.97,1.9,1.98,2.85,4.36,2.85,7.13s-.95,5.23-2.85,7.13c-1.9,1.9-4.24,2.85-7.01,2.85-2.93,0-5.29-.95-7.07-2.85-1.78-1.9-2.67-4.28-2.67-7.13s.89-5.15,2.67-7.13c1.78-1.98,4.14-2.97,7.07-2.97Z"/>
    <path class="cls-6" d="M9.87,20.09c-2.77,0-5.11-.99-7.01-2.97-1.9-1.98-2.85-4.36-2.85-7.13S.95,4.75,2.85,2.85C4.75.95,7.09,0,9.87,0c2.93,0,5.29.95,7.07,2.85,1.78,1.9,2.67,4.28,2.67,7.13s-.89,5.15-2.67,7.13c-1.78,1.98-4.14,2.97-7.07,2.97Z"/>
    <path class="cls-2" d="M277.02,97.51h-10.24c-2.41,0-4.37-1.96-4.37-4.37v-11.71c0-2.41-1.96-4.37-4.37-4.37h-5.95c-2.41,0-4.37,1.96-4.37,4.37v11.71c0,2.41-1.96,4.37-4.37,4.37h-10.24c-2.41,0-4.37,1.96-4.37,4.37v5.61c0,2.41,1.96,4.37,4.37,4.37h10.24c2.41,0,4.37,1.96,4.37,4.37v11.6c0,2.41,1.96,4.37,4.37,4.37h5.95c2.41,0,4.37-1.96,4.37-4.37v-11.6c0-2.41,1.96-4.37,4.37-4.37h10.24c2.41,0,4.37-1.96,4.37-4.37v-5.61c0-2.41-1.96-4.37-4.37-4.37Z"/>
  </g>
  <g>
    <rect class="cls-5" x=".71" y="27.93" width="18.31" height="57.77"/>
    <path class="cls-5" d="M70.37,31.78c-1.32-1.11-2.8-2.06-4.46-2.84-3.13-1.47-6.68-2.2-10.64-2.2-5.23,0-9.92,1.25-14.08,3.74s-7.43,5.88-9.81,10.16-3.57,9.15-3.57,14.62,1.19,10.14,3.57,14.5c2.38,4.36,5.63,7.81,9.75,10.34,4.12,2.54,8.84,3.8,14.14,3.8,3.96,0,7.51-.75,10.64-2.26,1.51-.73,2.87-1.59,4.1-2.58v3.53c0,4.12-1.29,7.29-3.86,9.51-2.58,2.22-6.12,3.33-10.64,3.33-3.49,0-6.52-.64-9.09-1.9-2.58-1.27-4.89-3.13-6.95-5.59l-11.29,11.17c2.77,3.96,6.56,7.03,11.35,9.21,4.79,2.18,10.32,3.27,16.58,3.27s11.71-1.21,16.58-3.62c4.87-2.42,8.7-5.84,11.47-10.28,2.77-4.44,4.16-9.63,4.16-15.57V27.93h-17.95v3.85ZM65.32,66.09c-1.86,1.11-4.06,1.66-6.6,1.66s-4.6-.55-6.42-1.66c-1.82-1.11-3.27-2.63-4.34-4.58-1.07-1.94-1.61-4.02-1.61-6.24s.51-4.4,1.54-6.3c1.03-1.9,2.5-3.41,4.4-4.52,1.9-1.11,4.08-1.66,6.54-1.66s4.71.55,6.54,1.66c1.82,1.11,3.23,2.62,4.22,4.52.99,1.9,1.48,3.96,1.48,6.18,0,2.46-.49,4.62-1.48,6.48-.99,1.86-2.42,3.35-4.28,4.46Z"/>
    <path class="cls-5" d="M146.8,29.72c-3.33-1.98-7.09-2.97-11.29-2.97-4.44,0-8.42.93-11.95,2.79-1.61.85-3.05,1.86-4.34,3.03v-4.64h-18.3v57.77h18.3v-32.92c0-1.98.43-3.72,1.31-5.23.87-1.5,2.06-2.67,3.57-3.51,1.5-.83,3.21-1.25,5.11-1.25,2.85,0,5.23.93,7.13,2.79,1.9,1.86,2.85,4.26,2.85,7.19v32.92h18.3v-36.97c0-3.96-.95-7.63-2.85-11-1.9-3.37-4.52-6.04-7.84-8.02Z"/>
    <path class="cls-5" d="M251.22,4.99c-4.32-2.14-9.13-3.21-14.44-3.21h-35.18v83.92h18.78v-30.55h16.4c5.31,0,10.12-1.07,14.44-3.21,4.32-2.14,7.73-5.21,10.22-9.21,2.5-4,3.74-8.74,3.74-14.2s-1.25-10.32-3.74-14.32c-2.5-4-5.9-7.07-10.22-9.21ZM244.74,35.06c-1.11,1.82-2.6,3.19-4.46,4.1-1.86.91-3.94,1.37-6.24,1.37h-13.67v-24.13h13.67c2.3,0,4.38.46,6.24,1.37,1.86.91,3.35,2.28,4.46,4.1,1.11,1.82,1.66,4.04,1.66,6.66s-.56,4.72-1.66,6.54Z"/>
    <path class="cls-5" d="M335.31,62.28c-2.22,2.46-4.91,4.34-8.08,5.65-3.17,1.31-6.89,1.96-11.17,1.96-3.65,0-6.97-.61-9.99-1.84-3.01-1.23-5.63-3.01-7.84-5.35-2.22-2.34-3.92-5.11-5.11-8.32-1.19-3.21-1.78-6.79-1.78-10.76s.59-7.33,1.78-10.58c1.19-3.25,2.89-6.02,5.11-8.32,2.22-2.3,4.83-4.06,7.84-5.29,3.01-1.23,6.34-1.84,9.99-1.84,4.12,0,7.74.67,10.88,2.02,3.13,1.35,5.77,3.21,7.91,5.59l12.6-12.72c-3.88-3.72-8.42-6.66-13.61-8.8-5.19-2.14-11.11-3.21-17.77-3.21s-12.17,1.09-17.47,3.27c-5.31,2.18-9.97,5.21-13.97,9.09-4,3.88-7.11,8.46-9.33,13.73-2.22,5.27-3.33,10.96-3.33,17.06s1.11,11.79,3.33,17.06c2.22,5.27,5.33,9.89,9.33,13.85,4,3.96,8.68,7.03,14.03,9.21s11.15,3.27,17.41,3.27c6.89,0,12.96-1.05,18.19-3.15,5.23-2.1,9.82-5.05,13.79-8.85l-12.72-12.72Z"/>
    <rect class="cls-5" x="168.9" y="28" width="18.3" height="57.77"/>
  </g>
</svg>